<?xml version="1.0" encoding="UTF-8" standalone="no"?>
<!-- Created with Inkscape (http://www.inkscape.org/) -->

<svg
   xmlns:dc="http://purl.org/dc/elements/1.1/"
   xmlns:cc="http://creativecommons.org/ns#"
   xmlns:rdf="http://www.w3.org/1999/02/22-rdf-syntax-ns#"
   xmlns:svg="http://www.w3.org/2000/svg"
   xmlns="http://www.w3.org/2000/svg"
   xmlns:sodipodi="http://sodipodi.sourceforge.net/DTD/sodipodi-0.dtd"
   xmlns:inkscape="http://www.inkscape.org/namespaces/inkscape"
   id="svg3179"
   version="1.1"
   inkscape:version="0.48.4 r9939"
   width="146.665"
   height="146.665"
   xml:space="preserve"
   sodipodi:docname="logo.ai"><metadata
     id="metadata3185"><rdf:RDF><cc:Work
         rdf:about=""><dc:format>image/svg+xml</dc:format><dc:type
           rdf:resource="http://purl.org/dc/dcmitype/StillImage" /><dc:title></dc:title></cc:Work></rdf:RDF></metadata><defs
     id="defs3183"><clipPath
       clipPathUnits="userSpaceOnUse"
       id="clipPath3193"><path
         d="M 58.666,117.332 C 26.266,117.332 0,91.066 0,58.666 l 0,0 C 0,26.266 26.266,0 58.666,0 l 0,0 c 32.399,0 58.666,26.266 58.666,58.666 l 0,0 c 0,32.4 -26.267,58.666 -58.666,58.666 z"
         id="path3195" /></clipPath><linearGradient
       x1="0"
       y1="0"
       x2="1"
       y2="0"
       gradientUnits="userSpaceOnUse"
       gradientTransform="matrix(-5.1e-6,117.33203,117.33203,5.1e-6,58.666016,0)"
       spreadMethod="pad"
       id="linearGradient3201"><stop
         style="stop-opacity:1;stop-color:#0882c8"
         offset="0"
         id="stop3203" /><stop
         style="stop-opacity:1;stop-color:#26b6db"
         offset="1"
         id="stop3205" /></linearGradient><clipPath
       clipPathUnits="userSpaceOnUse"
       id="clipPath3213"><path
         d="m 0,117.332 117.332,0 L 117.332,0 0,0 0,117.332 z"
         id="path3215" /></clipPath><clipPath
       clipPathUnits="userSpaceOnUse"
       id="clipPath3213-5"><path
         inkscape:connector-curvature="0"
         d="m 0,117.332 117.332,0 L 117.332,0 0,0 0,117.332 z"
         id="path3215-8" /></clipPath></defs><sodipodi:namedview
     pagecolor="#ffffff"
     bordercolor="#666666"
     borderopacity="1"
     objecttolerance="10"
     gridtolerance="10"
     guidetolerance="10"
     inkscape:pageopacity="0"
     inkscape:pageshadow="2"
     inkscape:window-width="1254"
     inkscape:window-height="773"
     id="namedview3181"
     showgrid="false"
     inkscape:zoom="1.6091093"
     inkscape:cx="3.728771"
     inkscape:cy="73.332497"
     inkscape:window-x="0"
     inkscape:window-y="25"
     inkscape:window-maximized="0"
     inkscape:current-layer="layer1" /><g
     id="g3187"
     inkscape:groupmode="layer"
     inkscape:label="logo"
     transform="matrix(1.25,0,0,-1.25,0,146.665)"><g
       id="g3189"
       style="fill:#000000"><g
         id="g3191"
         clip-path="url(#clipPath3193)"
         style="fill:#000000"><g
           id="g3197"
           style="fill:#000000"><g
             id="g3199"
             style="fill:#000000"><path
               d="M 58.666,117.332 C 26.266,117.332 0,91.066 0,58.666 l 0,0 C 0,26.266 26.266,0 58.666,0 l 0,0 c 32.399,0 58.666,26.266 58.666,58.666 l 0,0 c 0,32.4 -26.267,58.666 -58.666,58.666 z"
               style="fill:#000000;stroke:none"
               id="path3207" /></g></g></g></g></g><g
     inkscape:groupmode="layer"
     id="layer1"
     inkscape:label="Top"
     style="display:inline"><g
       transform="matrix(1.25,0,0,-1.25,0.8771196,146.30966)"
       id="g3209"><g
         id="g3211"
         clip-path="url(#clipPath3213-5)"><g
           id="g3217"
           transform="translate(102.332,58.8789)"><path
             inkscape:connector-curvature="0"
             d="m 0,0 c 0,24.117 -19.551,43.666 -43.666,43.666 -24.117,0 -43.666,-19.549 -43.666,-43.666 0,-24.115 19.549,-43.666 43.666,-43.666 C -19.551,-43.666 0,-24.115 0,0 z"
             style="fill:none;stroke:#ffffff;stroke-width:6;stroke-linecap:butt;stroke-linejoin:miter;stroke-miterlimit:10;stroke-opacity:1;stroke-dasharray:none"
             id="path3219" /></g><g
           id="g3221"
           transform="translate(94.666,69.4863)"><path
             inkscape:connector-curvature="0"
             d="M 0,0 C 4.695,-1.625 9.82,0.865 11.447,5.562 13.072,10.256 10.578,15.385 5.883,17.008 1.187,18.635 -3.939,16.143 -5.564,11.445 -7.187,6.748 -4.697,1.623 0,0"
             style="fill:#ffffff;fill-opacity:1;fill-rule:nonzero;stroke:none"
             id="path3223" /></g><g
           id="g3225"
           transform="translate(97.584,77.9785)"><path
             inkscape:connector-curvature="0"
             d="M 0,0 -30.071,-25.042"
             style="fill:none;stroke:#ffffff;stroke-width:6;stroke-linecap:butt;stroke-linejoin:miter;stroke-miterlimit:10;stroke-opacity:1;stroke-dasharray:none"
             id="path3227" /></g><g
           id="g3229"
           transform="translate(77.584,26.3535)"><path
             inkscape:connector-curvature="0"
             d="m 0,0 c -0.445,-4.949 3.213,-9.32 8.158,-9.766 4.951,-0.443 9.326,3.213 9.768,8.162 0.443,4.948 -3.211,9.321 -8.16,9.766 C 4.814,8.604 0.441,4.951 0,0"
             style="fill:#ffffff;fill-opacity:1;fill-rule:nonzero;stroke:none"
             id="path3231" /></g><g
           id="g3233"
           transform="translate(86.5293,25.5703)"><path
             inkscape:connector-curvature="0"
             d="M 0,0 -19.017,27.366"
             style="fill:none;stroke:#ffffff;stroke-width:6;stroke-linecap:butt;stroke-linejoin:miter;stroke-miterlimit:10;stroke-opacity:1;stroke-dasharray:none"
             id="path3235" /></g><g
           id="g3237"
           transform="translate(59.959,48.0449)"><path
             inkscape:connector-curvature="0"
             d="M 0,0 C 2.697,-4.17 8.27,-5.363 12.443,-2.664 16.615,0.033 17.809,5.609 15.107,9.779 12.408,13.953 6.834,15.146 2.662,12.445 -1.508,9.744 -2.703,4.172 0,0"
             style="fill:#ffffff;fill-opacity:1;fill-rule:nonzero;stroke:none"
             id="path3239" /></g><g
           id="g3241"
           transform="translate(21.1543,55.9199)"><path
             inkscape:connector-curvature="0"
             d="m 0,0 c -4.266,2.541 -9.789,1.146 -12.338,-3.123 -2.541,-4.268 -1.148,-9.793 3.123,-12.336 4.268,-2.549 9.795,-1.148 12.338,3.123 C 5.668,-8.066 4.271,-2.543 0,0"
             style="fill:#ffffff;fill-opacity:1;fill-rule:nonzero;stroke:none"
             id="path3243" /></g><g
           id="g3245"
           transform="translate(16.5703,48.1973)"><path
             inkscape:connector-curvature="0"
             d="M 0,0 50.942,4.739"
             style="fill:none;stroke:#ffffff;stroke-width:6;stroke-linecap:butt;stroke-linejoin:miter;stroke-miterlimit:10;stroke-opacity:1;stroke-dasharray:none"
             id="path3247" /></g></g></g></g></svg>